<svg width="98" height="35" viewBox="0 0 98 35" fill="none" xmlns="http://www.w3.org/2000/svg">
<path d="M11.797 8.6666V20.7849C11.797 22.661 11.2766 24.106 10.2357 25.1201C9.21127 26.1342 7.82338 26.6412 6.072 26.6412C4.23801 26.6412 2.76751 26.1088 1.66051 25.0441C0.553502 23.9793 0 22.4666 0 20.506H4.21323C4.21323 21.2497 4.36193 21.8159 4.65933 22.2046C4.95674 22.5765 5.38632 22.7624 5.94808 22.7624C6.46028 22.7624 6.85682 22.5934 7.1377 22.2553C7.41858 21.9173 7.55902 21.4272 7.55902 20.7849V8.6666H11.797Z" fill="white"/>
<path d="M21.7632 26.6666C20.4083 26.6666 19.1857 26.3708 18.0952 25.7793C17.0212 25.1877 16.1703 24.3427 15.5425 23.2441C14.9311 22.1455 14.6255 20.861 14.6255 19.3905C14.6255 17.937 14.9394 16.661 15.5672 15.5624C16.1951 14.4469 17.0543 13.5934 18.1447 13.0018C19.2352 12.4103 20.4579 12.1145 21.8127 12.1145C23.1676 12.1145 24.3902 12.4103 25.4807 13.0018C26.5712 13.5934 27.4304 14.4469 28.0582 15.5624C28.6861 16.661 29 17.937 29 19.3905C29 20.8441 28.6778 22.1286 28.0334 23.2441C27.4056 24.3427 26.5382 25.1877 25.4312 25.7793C24.3407 26.3708 23.118 26.6666 21.7632 26.6666ZM21.7632 22.9145C22.5728 22.9145 23.2584 22.6103 23.8202 22.0018C24.3985 21.3934 24.6876 20.5229 24.6876 19.3905C24.6876 18.2581 24.4068 17.3877 23.845 16.7793C23.2998 16.1708 22.6223 15.8666 21.8127 15.8666C20.9866 15.8666 20.3009 16.1708 19.7557 16.7793C19.2104 17.3708 18.9378 18.2412 18.9378 19.3905C18.9378 20.5229 19.2022 21.3934 19.7309 22.0018C20.2761 22.6103 20.9536 22.9145 21.7632 22.9145Z" fill="white"/>
<path fill-rule="evenodd" clip-rule="evenodd" d="M33 16.1556C33 7.60113 39.7306 0.666595 48.0335 0.666595C56.3363 0.666595 63.0669 7.60113 63.0669 16.1556C63.0669 19.8455 61.8146 23.2341 59.724 25.8947L65.5365 31.8833C66.1545 32.52 66.1545 33.5523 65.5365 34.1891C64.9185 34.8258 63.9166 34.8258 63.2986 34.1891L57.4861 28.2004C54.9037 30.3544 51.6149 31.6446 48.0335 31.6446C39.7306 31.6446 33 24.7101 33 16.1556ZM48.0335 3.92744C41.4785 3.92744 36.1649 9.40204 36.1649 16.1556C36.1649 22.9092 41.4785 28.3838 48.0335 28.3838C54.5884 28.3838 59.902 22.9092 59.902 16.1556C59.902 9.40204 54.5884 3.92744 48.0335 3.92744ZM48.0334 7.18829C49.0726 7.18715 50.1019 7.39746 51.062 7.80718C52.0228 8.21717 52.8954 8.81875 53.6298 9.57734C54.0816 10.044 54.2162 10.7449 53.9711 11.3536C53.7259 11.9624 53.1491 12.3592 52.5095 12.3592H43.5574C42.9175 12.3592 42.3405 11.9621 42.0955 11.3529C41.8505 10.7438 41.9857 10.0427 42.4381 9.57627C43.8681 8.10193 45.8486 7.18829 48.0334 7.18829ZM48.0334 7.18829V8.81871L48.0313 7.18829C48.032 7.18829 48.0327 7.18829 48.0334 7.18829Z" fill="white"/>
<path d="M74.1937 14.9473C74.5861 14.3217 75.1502 13.8163 75.8859 13.4313C76.6216 13.0463 77.4637 12.8538 78.4119 12.8538C79.5401 12.8538 80.5619 13.1345 81.4775 13.696C82.3931 14.2575 83.1125 15.0596 83.6357 16.1024C84.1752 17.1452 84.445 18.3564 84.445 19.7361C84.445 21.1158 84.1752 22.335 83.6357 23.3939C83.1125 24.4366 82.3931 25.2468 81.4775 25.8243C80.5619 26.3858 79.5401 26.6666 78.4119 26.6666C77.4473 26.6666 76.6053 26.4821 75.8859 26.1131C75.1665 25.7281 74.6024 25.2227 74.1937 24.5971V26.4741H70V8.6666H74.1937V14.9473ZM80.1777 19.7361C80.1777 18.7094 79.8834 17.9072 79.2948 17.3297C78.7226 16.7361 78.0114 16.4393 77.1612 16.4393C76.3273 16.4393 75.6161 16.7361 75.0275 17.3297C74.4553 17.9233 74.1692 18.7334 74.1692 19.7602C74.1692 20.7869 74.4553 21.5971 75.0275 22.1907C75.6161 22.7842 76.3273 23.081 77.1612 23.081C77.995 23.081 78.7062 22.7842 79.2948 22.1907C79.8834 21.581 80.1777 20.7629 80.1777 19.7361Z" fill="white"/>
<path d="M92.4574 26.6666C91.2639 26.6666 90.2012 26.4661 89.2692 26.065C88.3373 25.6639 87.6016 25.1185 87.062 24.4286C86.5225 23.7227 86.22 22.9366 86.1546 22.0703H90.2993C90.3483 22.5356 90.569 22.9126 90.9614 23.2014C91.3538 23.4901 91.8362 23.6345 92.4084 23.6345C92.9316 23.6345 93.3322 23.5383 93.6101 23.3457C93.9044 23.1372 94.0515 22.8725 94.0515 22.5516C94.0515 22.1666 93.8472 21.8858 93.4384 21.7094C93.0297 21.5169 92.3675 21.3083 91.4519 21.0837C90.4709 20.8591 89.6535 20.6265 88.9995 20.3858C88.3455 20.1292 87.7814 19.7361 87.3073 19.2067C86.8331 18.6612 86.5961 17.9313 86.5961 17.0169C86.5961 16.2468 86.8086 15.5489 87.2337 14.9233C87.6751 14.2816 88.3128 13.7762 89.1466 13.4072C89.9968 13.0383 91.0023 12.8538 92.1631 12.8538C93.8799 12.8538 95.2287 13.2709 96.2097 14.1051C97.207 14.9393 97.7793 16.0463 97.9264 17.426H94.0515C93.9861 16.9607 93.7736 16.5917 93.4139 16.319C93.0706 16.0463 92.6128 15.9099 92.0405 15.9099C91.55 15.9099 91.174 16.0062 90.9124 16.1987C90.6508 16.3752 90.52 16.6238 90.52 16.9447C90.52 17.3297 90.7244 17.6185 91.1331 17.811C91.5582 18.0035 92.2122 18.196 93.0951 18.3885C94.1088 18.6452 94.9344 18.9019 95.5721 19.1586C96.2097 19.3992 96.7656 19.8003 97.2397 20.3618C97.7302 20.9072 97.9836 21.6452 98 22.5757C98 23.3618 97.7711 24.0677 97.3133 24.6933C96.8719 25.303 96.2261 25.7842 95.3759 26.1372C94.542 26.4901 93.5692 26.6666 92.4574 26.6666Z" fill="white"/>
</svg>
